<?xml version="1.0" encoding="utf-8"?>
<!-- Generator: Adobe Illustrator 25.1.0, SVG Export Plug-In . SVG Version: 6.00 Build 0)  -->
<svg version="1.1" id="Ebene_1" xmlns="http://www.w3.org/2000/svg" xmlns:xlink="http://www.w3.org/1999/xlink" x="0px" y="0px"
	 viewBox="0 0 1066 285" style="enable-background:new 0 0 1066 285;" xml:space="preserve">
<style type="text/css">
	.st0{fill:#303030;}
</style>
	<polygon class="st0" points="403,150.4 428.9,77.5 405.7,77.5 379.8,150.4 "/>
	<polygon class="st0" points="426.3,77.6 405.5,77.5 394.9,107.7 407.4,138 416.2,113.5 "/>
	<path class="st0" d="M86.6,199.1V93.5h14.6v92.8l41.3,0.3v12.5H86.6z"/>
	<path class="st0" d="M162.1,199.1V93.5h14.6v105.6H162.1z"/>
	<path class="st0" d="M246,199.1h-17.1L194.6,93.5h15.5l27.7,91.7h0.2l28-91.7h14.6L246,199.1z"/>
	<path class="st0" d="M298.5,199.1V93.5h56.4v12.4L313,106v32h38.3v12.5H313v36.1l41.8,0.2v12.3H298.5z"/>
	<polygon class="st0" points="397.8,150.5 363.2,150.5 363.2,137.8 406.6,137.8 "/>
	<path class="st0" d="M698.1,199.1l-6-22.5h-32.6l-6.2,22.5h-25.8l32.8-105.6h33.4l31.8,105.6H698.1z M675.9,115.2h-0.2l-11.1,41.2
	H687L675.9,115.2z"/>
	<path class="st0" d="M777.7,114.9v84.2h-25.5v-84.2h-26.6V93.5h78.7v21.4H777.7z"/>
	<path class="st0" d="M855.6,201.6c-35.5,0-43.2-22.5-43.2-55.3c0-34.5,10.6-55.4,46.9-55.4c9.2,0,17.4,1.9,24.4,4.7l-1.1,20.9
	c-6.6-3.2-14.4-5.2-21.2-5.2c-15.5,0-22.8,11.2-22.8,28.5v13.3c0,21.5,10,27.9,22.8,27.9c8.2,0,15.5-2.9,22.3-6.7l1.1,20.7
	C876.8,199.4,867.7,201.6,855.6,201.6z"/>
	<path class="st0" d="M959.8,199.1v-43.5h-34.4v43.5h-25.6V93.5h25.6v39.9h34.4V93.5h25.5v105.6H959.8z"/>
	<polygon class="st0" points="621.9,150.5 596,77.5 574.1,77.5 600,150.5 "/>
	<polygon class="st0" points="585.1,109.2 596,77.7 607.7,110.6 600,150.5 "/>
	<polygon class="st0" points="636.5,139.2 597.8,139.2 604,150.5 633,150.5 "/>
	<path class="st0" d="M554.2,247.3c-2.9,0-24.3,0-26.9,0c-2.6,0-3-3.2-3-3.2l-23.6-118l-24.7,86.6c0,0-0.7,3.9-3.6,3.9
	c-2.9,0-23.9,0-26.8,0c-2.9,0-3.7-3.9-3.7-3.9L405.5,77.5l27.1,0l26.5,107.2h0.4l41.6-155.5l41,186.2h0.2L569,77.5l26.5,0l-38,165.9
	C557.5,243.4,557.1,247.3,554.2,247.3z"/>
</svg>
